<svg xmlns="http://www.w3.org/2000/svg" width="692.016" height="237.43" viewBox="0 0 692.016 237.43">
  <g id="logo" transform="translate(-60.868 -76)">
    <path id="Trazado_318" data-name="Trazado 318" d="M135.108,166.1a17.453,17.453,0,0,0-10.327-16.356c-8.9-3.8-20.661-3.2-29.361,0-3.95,1.453-7.021,3.692-6.94,10.221s4.441,10.28,10.72,12.082c11.5,3.4,11.948,3.774,24.7,6.575s19.915,4.957,26.692,7.581,19.992,10.4,22.306,22.9.714,19.724-1.559,26.58-9.927,16.374-19.763,21.772-22.3,7.519-36.751,7.947-27.585-1.73-38.549-6.145A50.544,50.544,0,0,1,52.836,239.1c-4.137-7-4.968-21.155-4.968-21.155H83.295s-1,19.555,20.7,21.155c21.8,1.6,27.591-4.1,27.591-4.1s6.225-5.6,5.415-11.94-3.274-9.692-16.24-13.958-33.047-8.034-38.857-9.834-22.609-7.054-28.709-21.5.357-33.306,7.991-39.875c6.682-8.44,22.736-14.082,40.635-15.342,19.9-1.3,32.4.882,44.687,6.939a43.637,43.637,0,0,1,19.033,18.32c4.5,9.338,4.076,10.677,4.949,18.291Z" transform="translate(13 3)" fill="#01192e"/>
    <path id="Trazado_319" data-name="Trazado 319" d="M258.2,156.5s-22,5.7-21.2,38.8,13.4,42.4,28.5,45.2,33.6-10.8,32.3-43.4S281.8,149.1,258.2,156.5Z" fill="none"/>
    <rect id="Rect치ngulo_509" data-name="Rect치ngulo 509" width="39.2" height="32.5" rx="1" transform="translate(359.9 76)" fill="#fc702a"/>
    <rect id="Rect치ngulo_510" data-name="Rect치ngulo 510" width="37.2" height="135.9" transform="translate(361.4 129.1)" fill="#01192e"/>
    <path id="Trazado_320" data-name="Trazado 320" d="M425.4,77l-.078,188.129h37.2V218.117l14.758-14.058,37.452,61.07h45.342l-57.669-86.257,50.9-49.772h-43.2L462.3,177.983,462.46,77Z" transform="translate(1)" fill="#01192e"/>
    <path id="Trazado_321" data-name="Trazado 321" d="M553.709,129.1H593.4l31.008,94.387L654.593,129.1h38.924L641.852,266.947s-7.28,26.932-18.929,36.205-22.651,10.529-38.367,10.242l-329.638-.642V282.395s315.368.811,327.884-.126c7.122-.533,11.8.053,15.182-2.569s4.319-5.414,4.877-13.894c.577-8.775-11.352-32.716-22.539-64.183C566.962,166.348,553.709,129.1,553.709,129.1Z" fill="#01192e"/>
    <path id="Trazado_322" data-name="Trazado 322" d="M324.512,150.113c-28.385-36.354-73.5-29.5-89.712-2.718V129.1H199.175l-.047,183.841H236.7V249.1s19.706,23.24,48.806,19.14,42.553-27.3,43.453-29.2C331.659,233.841,348.712,188.613,324.512,150.113Zm-51.717,91.1c-6,.2-36.072.088-36.094-43.305s30.509-42.128,30.509-42.128S296.2,152.3,297.6,193.6,278.794,241.016,272.794,241.216Z" transform="translate(5)" fill="#01192e"/>
    <path id="Trazado_323" data-name="Trazado 323" d="M750.9,249.8a30.039,30.039,0,1,1-56.1,21.5" fill="none"/>
  </g>
</svg>
