<svg width="245" height="243" viewBox="0 0 245 243" fill="none" xmlns="http://www.w3.org/2000/svg">
<path d="M75.0411 173.941C74.3265 174.198 73.5536 174.247 72.8127 174.081C72.0717 173.915 71.3933 173.541 70.8566 173.004C70.32 172.467 69.9473 171.788 69.782 171.047C69.6168 170.306 69.6659 169.533 69.9235 168.819L121.91 24.6987C122.139 24.0653 122.524 23.4999 123.03 23.055C123.536 22.6101 124.145 22.3001 124.803 22.1537C125.46 22.0073 126.144 22.0293 126.791 22.2175C127.438 22.4058 128.026 22.7544 128.502 23.2308L220.687 115.506C221.163 115.983 221.511 116.572 221.698 117.219C221.886 117.866 221.907 118.55 221.76 119.207C221.613 119.864 221.303 120.474 220.857 120.979C220.412 121.484 219.846 121.869 219.212 122.098L75.0411 173.941Z" fill="#01192E"/>
<path d="M137.687 176.416C149.035 172.066 154.709 159.34 150.359 147.992C146.009 136.643 133.283 130.97 121.935 135.32C110.587 139.67 104.913 152.395 109.263 163.744C113.613 175.092 126.339 180.766 137.687 176.416Z" stroke="#01192E" stroke-width="16.0042"/>
</svg>
